<svg width="21" height="20" viewBox="0 0 21 20" fill="none" xmlns="http://www.w3.org/2000/svg">
<mask id="mask0_16_163" style="mask-type:alpha" maskUnits="userSpaceOnUse" x="0" y="-1" width="21" height="21">
<path d="M6.125 16.4042C7.37164 17.3862 8.91304 17.9191 10.5 17.9167C12.1512 17.9167 13.6708 17.3517 14.875 16.4042M8.41667 4.06128C5.52125 4.95086 3.41667 7.64628 3.41667 10.8334C3.41667 11.6354 3.55 12.4063 3.79583 13.125M12.5833 4.06128C15.4787 4.95086 17.5833 7.64628 17.5833 10.8334C17.5833 11.6354 17.45 12.4063 17.2042 13.125" stroke="white" stroke-width="4"/>
<path d="M18.4167 15.0001C18.4167 15.5592 18.1967 16.0667 17.8383 16.4409C17.5037 16.7905 17.0578 17.0127 16.5772 17.0693C16.0966 17.126 15.6113 17.0136 15.2045 16.7513C14.7978 16.4891 14.495 16.0935 14.3482 15.6324C14.2014 15.1712 14.2197 14.6734 14.3999 14.2243C14.5802 13.7752 14.9112 13.4028 15.3361 13.1712C15.761 12.9395 16.2532 12.863 16.7284 12.9548C17.2036 13.0466 17.6319 13.3009 17.94 13.6741C18.2481 14.0473 18.4166 14.5161 18.4167 15.0001ZM6.75 15.0001C6.75 15.5592 6.53 16.0667 6.17167 16.4409C5.83704 16.7905 5.39114 17.0127 4.91053 17.0693C4.42993 17.126 3.94459 17.0136 3.53785 16.7513C3.13111 16.4891 2.82834 16.0935 2.68152 15.6324C2.5347 15.1712 2.553 14.6734 2.73327 14.2243C2.91353 13.7752 3.24452 13.4028 3.66941 13.1712C4.0943 12.9395 4.58658 12.863 5.06174 12.9548C5.53689 13.0466 5.96527 13.3009 6.27334 13.6741C6.58141 14.0473 6.74994 14.5161 6.75 15.0001ZM12.5833 3.75007C12.5833 4.30924 12.3633 4.81674 12.005 5.1909C11.6704 5.5405 11.2245 5.76269 10.7439 5.81934C10.2633 5.87599 9.77792 5.76355 9.37118 5.50134C8.96444 5.23913 8.66167 4.8435 8.51485 4.38237C8.36804 3.92125 8.38633 3.42339 8.5666 2.97429C8.74687 2.52518 9.07786 2.15284 9.50275 1.92119C9.92763 1.68954 10.4199 1.61303 10.8951 1.7048C11.3702 1.79657 11.7986 2.05089 12.1067 2.4241C12.4147 2.79732 12.5833 3.26613 12.5833 3.75007Z" fill="white" stroke="white" stroke-width="4" stroke-linecap="round" stroke-linejoin="round"/>
</mask>
<g mask="url(#mask0_16_163)">
<path d="M0.5 0H20.5V20H0.5V0Z" fill="#9747FF"/>
</g>
</svg>
