<svg width="20" height="20" viewBox="0 0 20 20" fill="none" xmlns="http://www.w3.org/2000/svg">
<path d="M3.11667 2.29175C2.89566 2.29175 2.6837 2.37955 2.52742 2.53583C2.37114 2.69211 2.28334 2.90407 2.28334 3.12508V3.12508V16.8751C2.28334 17.0961 2.37114 17.3081 2.52742 17.4643C2.6837 17.6206 2.89566 17.7084 3.11667 17.7084H16.8833C17.1044 17.7084 17.3163 17.6206 17.4726 17.4643C17.6289 17.3081 17.7167 17.0961 17.7167 16.8751V3.12508C17.7167 2.90407 17.6289 2.69211 17.4726 2.53583C17.3163 2.37955 17.1044 2.29175 16.8833 2.29175H3.11667Z" stroke="#808080" stroke-linecap="round" stroke-linejoin="round"/>
<path d="M13.05 5.05005C13.4184 5.05005 13.7785 5.15928 14.0848 5.36394C14.391 5.56859 14.6298 5.85947 14.7707 6.1998C14.9117 6.54013 14.9486 6.91461 14.8767 7.2759C14.8049 7.63719 14.6275 7.96906 14.367 8.22954C14.1065 8.49001 13.7747 8.6674 13.4134 8.73926C13.0521 8.81113 12.6776 8.77424 12.3373 8.63327C11.9969 8.49231 11.706 8.25358 11.5014 7.9473C11.2967 7.64101 11.1875 7.28092 11.1875 6.91255C11.1875 6.41858 11.3837 5.94485 11.733 5.59556C12.0823 5.24628 12.556 5.05005 13.05 5.05005V5.05005ZM8.33334 8.75005L11.3417 11.7584C11.3688 11.7861 11.4012 11.8081 11.437 11.8232C11.4728 11.8382 11.5112 11.8459 11.55 11.8459C11.5888 11.8459 11.6272 11.8382 11.663 11.8232C11.6988 11.8081 11.7312 11.7861 11.7583 11.7584L12.3333 11.1834C12.3887 11.1284 12.4636 11.0976 12.5417 11.0976C12.6197 11.0976 12.6946 11.1284 12.75 11.1834L16.0042 14.4376C16.0458 14.4783 16.0743 14.5307 16.0859 14.5878C16.0975 14.645 16.0917 14.7043 16.0693 14.7581C16.0469 14.8119 16.0088 14.8578 15.9601 14.8898C15.9114 14.9218 15.8541 14.9384 15.7958 14.9375H4.2C4.14652 14.938 4.09394 14.9237 4.04803 14.8962C4.00212 14.8688 3.96464 14.8292 3.93969 14.7819C3.91474 14.7346 3.90328 14.6813 3.90657 14.628C3.90986 14.5746 3.92777 14.5231 3.95834 14.4792L7.91667 8.80422C7.94001 8.77269 7.96947 8.74619 8.00329 8.72632C8.03711 8.70644 8.07459 8.69359 8.11349 8.68853C8.15239 8.68347 8.19191 8.68632 8.22968 8.69689C8.26746 8.70746 8.30271 8.72554 8.33334 8.75005V8.75005Z" stroke="#808080" stroke-linecap="round" stroke-linejoin="round"/>
</svg>
