<svg width="19" height="18" viewBox="0 0 19 18" fill="none" xmlns="http://www.w3.org/2000/svg">
<path d="M8.25 2.75C8.25 2.02065 7.96027 1.32118 7.44454 0.805456C6.92882 0.289731 6.22935 0 5.5 0C4.77065 0 4.07118 0.289731 3.55546 0.805456C3.03973 1.32118 2.75 2.02065 2.75 2.75C2.75 3.47935 3.03973 4.17882 3.55546 4.69454C4.07118 5.21027 4.77065 5.5 5.5 5.5C6.22935 5.5 6.92882 5.21027 7.44454 4.69454C7.96027 4.17882 8.25 3.47935 8.25 2.75ZM3.75 2.75C3.75 2.52019 3.79526 2.29262 3.88321 2.0803C3.97116 1.86798 4.10006 1.67507 4.26256 1.51256C4.42507 1.35006 4.61798 1.22116 4.8303 1.13321C5.04262 1.04527 5.27019 1 5.5 1C5.72981 1 5.95738 1.04527 6.1697 1.13321C6.38202 1.22116 6.57493 1.35006 6.73744 1.51256C6.89994 1.67507 7.02884 1.86798 7.11679 2.0803C7.20474 2.29262 7.25 2.52019 7.25 2.75C7.25 3.21413 7.06563 3.65925 6.73744 3.98744C6.40925 4.31563 5.96413 4.5 5.5 4.5C5.03587 4.5 4.59075 4.31563 4.26256 3.98744C3.93437 3.65925 3.75 3.21413 3.75 2.75ZM2 6.5H6.183C6.019 6.81 5.897 7.146 5.825 7.5H2C1.86739 7.5 1.74021 7.55268 1.64645 7.64645C1.55268 7.74021 1.5 7.86739 1.5 8V8.5C1.5 9.76 2.599 11.114 4.596 11.43C4.274 11.65 4.006 11.943 3.815 12.284C1.705 11.713 0.5 10.087 0.5 8.5V8C0.5 7.60218 0.658035 7.22064 0.93934 6.93934C1.22064 6.65804 1.60218 6.5 2 6.5ZM7.379 6.5C7.883 5.89 8.646 5.5 9.5 5.5C10.0989 5.49896 10.6816 5.69386 11.1594 6.05497C11.6371 6.41608 11.9836 6.92356 12.146 7.5C12.2907 8.0145 12.2826 8.56 12.1225 9.06994C11.9625 9.57988 11.6574 10.0322 11.2447 10.3717C10.8319 10.7112 10.3292 10.9232 9.79797 10.9819C9.26673 11.0405 8.7299 10.9433 8.253 10.702C7.88581 10.5151 7.56531 10.2481 7.31518 9.92074C7.06504 9.59335 6.89166 9.21395 6.80785 8.81055C6.72405 8.40716 6.73195 7.99009 6.83098 7.59017C6.93001 7.19024 7.11764 6.81767 7.38 6.5H7.379ZM7.919 7.5C7.82051 7.70775 7.7639 7.93287 7.75241 8.1625C7.74092 8.39212 7.77477 8.62177 7.85203 8.83831C7.92929 9.05486 8.04844 9.25407 8.20269 9.42457C8.35693 9.59506 8.54325 9.73351 8.751 9.832C8.95875 9.93049 9.18387 9.9871 9.4135 9.99859C9.64312 10.0101 9.87277 9.97623 10.0893 9.89897C10.3059 9.82172 10.5051 9.70256 10.6756 9.54832C10.8461 9.39407 10.9845 9.20775 11.083 9C11.2819 8.58029 11.306 8.09876 11.1498 7.66133C10.9937 7.22391 10.6702 6.86641 10.2505 6.6675C9.83079 6.46859 9.34926 6.44455 8.91183 6.60067C8.47441 6.7568 8.11691 7.0803 7.918 7.5H7.919ZM15.185 12.284C14.9945 11.9428 14.7271 11.6507 14.404 11.431C16.4 11.114 17.5 9.759 17.5 8.5V8C17.5 7.86739 17.4473 7.74021 17.3536 7.64645C17.2598 7.55268 17.1326 7.5 17 7.5H13.175C13.1044 7.15133 12.9841 6.81458 12.818 6.5H17C17.3978 6.5 17.7794 6.65804 18.0607 6.93934C18.342 7.22064 18.5 7.60218 18.5 8V8.5C18.5 10.087 17.294 11.712 15.185 12.284ZM13.987 12.371C13.7141 12.1314 13.3632 11.9995 13 12H6C5.80287 11.9995 5.60758 12.0379 5.42535 12.1131C5.24312 12.1883 5.07756 12.2988 4.93816 12.4382C4.79877 12.5776 4.6883 12.7431 4.61311 12.9254C4.53791 13.1076 4.49947 13.3029 4.5 13.5V14C4.5 15.971 6.36 18 9.5 18C12.64 18 14.5 15.971 14.5 14V13.5C14.5 13.05 14.302 12.646 13.987 12.37V12.371ZM5.5 13.5C5.5 13.3674 5.55268 13.2402 5.64645 13.1464C5.74021 13.0527 5.86739 13 6 13H13C13.1326 13 13.2598 13.0527 13.3536 13.1464C13.4473 13.2402 13.5 13.3674 13.5 13.5V14C13.5 15.438 12.068 17 9.5 17C6.932 17 5.5 15.438 5.5 14V13.5ZM13.5 0C14.2293 0 14.9288 0.289731 15.4445 0.805456C15.9603 1.32118 16.25 2.02065 16.25 2.75C16.25 3.47935 15.9603 4.17882 15.4445 4.69454C14.9288 5.21027 14.2293 5.5 13.5 5.5C12.7707 5.5 12.0712 5.21027 11.5555 4.69454C11.0397 4.17882 10.75 3.47935 10.75 2.75C10.75 2.02065 11.0397 1.32118 11.5555 0.805456C12.0712 0.289731 12.7707 0 13.5 0ZM13.5 1C13.0359 1 12.5908 1.18437 12.2626 1.51256C11.9344 1.84075 11.75 2.28587 11.75 2.75C11.75 3.21413 11.9344 3.65925 12.2626 3.98744C12.5908 4.31563 13.0359 4.5 13.5 4.5C13.9641 4.5 14.4092 4.31563 14.7374 3.98744C15.0656 3.65925 15.25 3.21413 15.25 2.75C15.25 2.28587 15.0656 1.84075 14.7374 1.51256C14.4092 1.18437 13.9641 1 13.5 1Z" fill="#FFD233"/>
</svg>
