<svg width="25" height="24" viewBox="0 0 25 24" fill="none" xmlns="http://www.w3.org/2000/svg">
<path d="M12.5 13C11.4 13 10.4583 12.6083 9.675 11.825C8.89167 11.0417 8.5 10.1 8.5 9V5.5C8.5 5.08333 8.646 4.72933 8.938 4.438C9.22933 4.146 9.58333 4 10 4C10.25 4 10.4877 4.05833 10.713 4.175C10.9377 4.29167 11.1167 4.45833 11.25 4.675C11.3833 4.45833 11.5627 4.29167 11.788 4.175C12.0127 4.05833 12.25 4 12.5 4C12.75 4 12.9877 4.05833 13.213 4.175C13.4377 4.29167 13.6167 4.45833 13.75 4.675C13.8833 4.45833 14.0627 4.29167 14.288 4.175C14.5127 4.05833 14.75 4 15 4C15.4167 4 15.7707 4.146 16.062 4.438C16.354 4.72933 16.5 5.08333 16.5 5.5V9C16.5 10.1 16.1083 11.0417 15.325 11.825C14.5417 12.6083 13.6 13 12.5 13ZM12.5 11C13.05 11 13.521 10.804 13.913 10.412C14.3043 10.0207 14.5 9.55 14.5 9V6.5H10.5V9C10.5 9.55 10.696 10.0207 11.088 10.412C11.4793 10.804 11.95 11 12.5 11ZM4.5 21V18.2C4.5 17.6333 4.646 17.1123 4.938 16.637C5.22933 16.1623 5.61667 15.8 6.1 15.55C7.13333 15.0333 8.18333 14.6457 9.25 14.387C10.3167 14.129 11.4 14 12.5 14C13.6 14 14.6833 14.129 15.75 14.387C16.8167 14.6457 17.8667 15.0333 18.9 15.55C19.3833 15.8 19.7707 16.1623 20.062 16.637C20.354 17.1123 20.5 17.6333 20.5 18.2V21H4.5ZM6.5 19H18.5V18.2C18.5 18.0167 18.4543 17.85 18.363 17.7C18.271 17.55 18.15 17.4333 18 17.35C17.1 16.9 16.1917 16.5623 15.275 16.337C14.3583 16.1123 13.4333 16 12.5 16C11.5667 16 10.6417 16.1123 9.725 16.337C8.80833 16.5623 7.9 16.9 7 17.35C6.85 17.4333 6.72933 17.55 6.638 17.7C6.546 17.85 6.5 18.0167 6.5 18.2V19Z" fill="#4ECB71"/>
</svg>
